/* XPM */
static char *a1abcaec9d57422bb76bc8098f7565f7URMCMi92CxLiiyLf[] = {
/* columns rows colors chars-per-pixel */
"50 50 98 2 ",
"   c #9F4D35",
".  c #925737",
"X  c #9E5336",
"o  c #915638",
"O  c #9D563D",
"+  c #935A3C",
"@  c #9E5C3C",
"#  c #A4553B",
"$  c #AB563D",
"%  c #A45A3D",
"&  c #AA5B3E",
"*  c #B15B3F",
"=  c #9C603E",
"-  c #9B5740",
";  c #9D5D41",
":  c #A55D43",
">  c #AC5D43",
",  c #AA5F48",
"<  c #B35D44",
"1  c #B85E44",
"2  c #9E6244",
"3  c #A46244",
"4  c #AC6245",
"5  c #A36846",
"6  c #A56449",
"7  c #AC654A",
"8  c #A56B4C",
"9  c #AC6A4C",
"0  c #B36346",
"q  c #BA6146",
"w  c #B3654B",
"e  c #BB654B",
"r  c #B46A4D",
"t  c #BA6A4D",
"y  c #B0704D",
"u  c #AD6650",
"i  c #A56A51",
"p  c #AD6C52",
"a  c #B76750",
"s  c #BE6652",
"d  c #B46C52",
"f  c #BB6D53",
"g  c #B66F59",
"h  c #BE6E58",
"j  c #AD7254",
"k  c #AD7459",
"l  c #AB785B",
"z  c #B47254",
"x  c #BC7255",
"c  c #B87855",
"v  c #B57459",
"b  c #BC745A",
"n  c #B57A5C",
"m  c #BC7A5D",
"M  c #B57760",
"N  c #BB7760",
"B  c #B57B61",
"V  c #BD7C61",
"C  c #BD7F68",
"Z  c #C1674D",
"A  c #C26E53",
"S  c #C96B51",
"D  c #C06E58",
"F  c #C96E59",
"G  c #C27256",
"H  c #CA7056",
"J  c #C3755B",
"K  c #CA755C",
"L  c #C47A5D",
"P  c #CA7A5E",
"I  c #D0745B",
"U  c #D07A5F",
"Y  c #C27760",
"T  c #CB7660",
"R  c #C47C62",
"E  c #CB7D63",
"W  c #CD7E68",
"Q  c #D17C64",
"!  c #D47D69",
"~  c #BC805E",
"^  c #BD8264",
"/  c #C48264",
"(  c #CB8265",
")  c #C58569",
"_  c #CB846A",
"`  c #C68A6B",
"'  c #CC8A6C",
"]  c #D18265",
"[  c #D3856B",
"{  c #D9846D",
"}  c #D38A6D",
"|  c #DB8C6F",
" . c #C68A70",
".. c #CC8C71",
"X. c #D48C72",
"o. c #D98970",
"O. c #CD9073",
"+. c #D6947A",
/* pixels */
"9 p 6 V v k i ^ B l k k p 6 , u u i u 6 v 7 p p Y g 7 7 b 4 w > K G w 7 b N j n v n i z d m g f x E ",
"7 v g v d N v n v ^ ^ M v N g g - p v v d g g d b J J r a f L f E f E J R z / ) ) M ^ / _ Y R b L E ",
"> a 7 d a b : O : u ; ; O p 7 6 6 v d b d g w r w a x > > a A 4 > : b r 9 ; V v p 6 V v a : f w 4 < ",
"h b h T s s e h D f , h g h w a b d a v b d h L b f J L E L E x L L E R _ V V V ..N v d v N E v G R ",
"7 w 7 h > > $ s < & # w < > $ w b 9 9 9 9 % 3 7 R R E W b > 7 > 0 & $ t ( L r r m j 9 p z d 9 7 u m ",
"7 g f J a h s a J J s G G T H K r b b x x b L x R } _ _ L f R x L L L x R R / L _ m b Y X.m b z m V ",
"> w w s : g x b d z 3 9 7 t > # > r w 0 % e e % 0 t w < > w w % : 5 z @ % 3 c 9 f , a > 4   < w 4 4 ",
"R h w b f R m m m m 3 z 9 f 7 f e G P E G x L L K J J b K E R L / c n m R m L y L A [ L E K Q e e G ",
"6 6 : p 6 6 2 j ; ; ; v f a f J r & & y x % 4 r r 4 d w x m x / y 4 & y y 0 4 % x E 0 # t G 0 * G G ",
"d N C ) m g p v p p g  .R v a h G G x G L G ( L J b L b L / ( ( ] ~ ~ G ( G P x L E K J P L t t J K ",
"u p 7 9 , a w r 6 g z m d d p 7 r G A 0 0 e f > & e w > # : f e 0 1 q q q 1 t 0 w < c b 4 z ~ y 7 p ",
"m b d b Y W Y D h W R R v V V R P ] K L K G E L L P b x J G R r H S H Z H q ~ Z A x / L r c m 9 d z ",
"u j d b x J a f > a w v a 9 7 h A 4 0 c x 0 4 a b b x d v r 9 a G q q * t * x 0 w x r 4 G 0 & 0 C B ",
"m m c L h L L P a g d R b f a R G x G L G x f a L x d d L J d r G t Z t L x G t b G x q G t x r M i ",
"x L x b f G z x d m p d r d r x r d e % > v J f w w J J J b f 4 t t A t x e t 0 r r L A Z G U e z i ",
"G L G L x R L / / ' z x d g r a x f a f a G x x r d R J r G J # * q x t t 0 c x G G K e 0 * e r : 6 ",
"u p m x 9 r 4 r 4 x x x > > & A a # 7 d G 0 4 r R d 9 z b A H Z Z t S 0 P t G x K A K G G G ] L / G ",
"N d V R x m G c y x r L e A e P f d x b c G x G x 9 v m b 4 Z q S q e * A r 0 0 G r r & r x x q t * ",
"+.) m / R / ~ G x x r G G ] G G J L L L c P x y m R ` p y 0 K t L P P f P K P c x L ( b L x P G K A ",
"v z : 4 t r & * t t r G t J 0 * w 9 z y c y t 4 3 v n ; 5 3 t & > r x < 0 r t 0 % % 5 5 : & r 4 $ & ",
"K o.E F S A Z P ] ] ( | ( L t / c j y c ( / ( ( L / / n m G K U W J J b ( E ( b / ( ' P _ G L K ] P ",
"a J f e $ * 0 e & * * y % & # 0 9 5 = y t r 0 q f 9 3 9 y & q Z A > X : r 3 4 > r t 0 4 L r # % A & ",
"/ / / / P } ] ~ ( ] G ( b ] L L b / m / ( ( ( P P P P P ] K ] K Q L L L L L E R P ( ] K [ P E [ ] ( ",
"n z 3 @ 4 c 0 t t c & & % 0 % # % r r % 4 4 q & < 1 t & & & A t w f G r w d f r q 4 e q * * t > 4 0 ",
"/ / E J J W T { W E E [ E _ ( E ] ( G ] ( I I I K L / R b b P ( E R J D Y G E L E R L G Q J H K G t ",
"@ O 9 f > 7 a h > : : a > : 7 J 0 0 0 G q 0 1 q A > 9 V ^ 5 5 r b 9 p r b w f 7 b 4 @ % w & # > G t ",
"` n ^ ` _ +. .R v Y b _ J J b ! P P ( ( G ~ L ] L f m ` ` c y ~ ' n m m ( V b z ' R V b / b v G / L ",
"l k 8 8 p N 6 6 p b 9 : 7 h a , w x G y = y 9 0 f J d 6 y l y 3 9 9 v j m N m z z z m 4 z 9 b z c y ",
"x / E E Y W v b b m d d v E b J x N / ~ c c c x d V N v n m m 9 9 d / z ~ ^ ^ k m b / d V v ^ n c y ",
"f f J [ Y [ R W m m d / R f w ( m d j ^ ~ y 9 c L b p 7 j d b E L z m n ^ m ^ V ) z d v / N m v / L ",
"e r f P x L x R / b z / b t e ( b x z / ~ c d r L g p u R v a 9 b 9 9 r m 9 b N / p 6 9 p z f z c b ",
"G L f L L _ 9 b b m b m G _ E E _ } / / L ` ) z 7 L _ v W R W J b / ( J L b R z z V ../ _ _ _ m L b ",
"x b d 9 9 b 3 : 4 9 y z L ) 9 9 j m 9 9 7 b p 6 ; p N p u d b d 6 5 z 3 : : d @ 2 ; / 9 d y b ( 0 4 ",
"( _ R / ' / ( ] K P ( ' ' } ~  .' ` R [ [ _ `  . .) R C ) R _ W ` / R b _ R b C ..^ ~ m ' ( ' } } } ",
", , > r g w e 1 1 < < a r g 3 b j : , s h 6 u M u 6 6 6 p 9 7 : w a r > s > $ 0 J r 6 8 9 4 3 4 t y ",
"R _ _ E b W T { F P E o.R E b O.) R T ! W ) ` ..) b N W _ ) _ _ o.J F G Q T Q Q [ b _ / ) ) b ( ( P ",
"g g d u , v p p d a r f w h u d p a w s r x 8 8 u d a 9 d v c r w w J b t w A e q % b z 8 d r g w r ",
")  .W W .... .N ) ) g Y T o.'  .V J D ! T _ l ~ b R W E _ ( / z b N L r A E | P P L +._ m m _ / d x ",
"k v b h a u v m p v b G e f V O.a f f h Y Y p / v : 0 A K a j c V b L d x r t x c r a d m R N g z z ",
"C C R R g ) V R J h b E J f m ' Y b Y b V m d ( R b G A G A b z m g b a K J L x L x a , g W p k n / ",
"7 V m z m n d s s L b L L L r b G Y v n n b x P ( L f G J G f b b h Q Z e A G f x x b J R m v v G L ",
"a L x c z z a A s A x c t r * t t v g d z z G b b J s e A t r f J T K w e < x r r t J r 7 6 v N x A ",
"F t t c j y r P J G z m t G G ] b z b R b J m m x A G F P H / R T T [ x } ( E b P J L b R V / V L m ",
"q < q t 5 3 w D 0 > & r 0 q 0 x 9 6 7 f f t 9 c c t s e A w a 6 b w b 3 v m x v b r r z z r r 3 d d ",
"K K U U K P K Q F T K T P Q x m n ` R T H [ L b / m E K T h W v L / ) ^ l k C m ( R R L / ( } [ L L ",
"x 0 Z e w f w w e D a , < A 7 6 + u > > < L a r . = w < , a v 2 7 : 5 3 + - 6 8 d p w % > 0 t & > 0 ",
"G G P K b / V ) ( X._ _ Y ( V V R ( R R E Q K L m ^ ) / R W ( v b e L L R ) M M N Y E L K ] ( G G L ",
"X % r 9 ; ; : m z u p v : 7 7 v 7 - 3 : , > e 7 r 6 2 6 p d g 9 t e > > a , , ; p : % & 0 0 0 0 w e ",
"_ c C / n V R E L E L L G L R / V V R R / E J m L V V m V _ _ ' ] P E L Q L .. .^ ^  .N Y Y b b L L ",
"J d v k 6 j a e t t t t t t z b v v V m m L x b v v g p d v z z x a t > q > v 8 i p M p g b h h m m "
};
