/* XPM */
static char *_1800_89e5938687d63f86725d8f0d5a7fd32584b55f2b7a46d9dbff65951ca3370053[] = {
/* columns rows colors chars-per-pixel */
"50 50 29 1 ",
"  c #2C221E",
". c #2F2622",
"X c #302722",
"o c #352C24",
"O c #382F26",
"+ c #392F28",
"@ c #3A3027",
"# c #373028",
"$ c #3D342C",
"% c #3F3631",
"& c #40362E",
"* c #41392E",
"= c #403730",
"- c #453C33",
"; c #483F36",
": c #483F38",
"> c #474135",
", c #4A4136",
"< c #4D443A",
"1 c #4F493C",
"2 c #50473C",
"3 c #52493E",
"4 c #554C42",
"5 c #594E44",
"6 c #565044",
"7 c #5A5146",
"8 c #5D5349",
"9 c #60564B",
"0 c #62594C",
/* pixels */
"471254$45444243<<:--3<322<333*2*<333-<,>3332379377",
"3:$<5<:-:4445<-<1--2<3323333,,2,,<<<<,,;22;-,*1377",
",;=42141-$:2:=2756:$<2<3323,&2233233,2<<-,>>,1,**,",
"51,4421121-X2777457--<>:;*,&*22223352333;&;2232,;3",
"4%14411431-=455547444%:<,,,<@23333<-<,>3--333333-3",
";>54444132-1%:4587444:$<<,,,*,,,-&&:-$OO;;3333332@",
"4554144441$;<411744448<$<22<,@-*>>,,,<----,332253;",
"=5545541--%143531<5542:-*,,<2*2<>,,,-<<<;&32333333",
"%=-<,>---<,343253,33-;<<,*-*,,,,<2<,<**<2-,333,,2;",
"<;-;&*>,3<-95523<:<<2133*23,-*,2<<2<,35-,2,,3,2,,,",
"<,,<>,1,3,<3547&35<33333,3233,,2,-=-3755,&,-,3532,",
"<>;,,>>><3-3572*:533<-<<,323,3,33<<435579&23,552,3",
"<><1>$&>>**<,:<73*:<-,3,332*2222334363393-395>2222",
"-#$$@309&&<3<<233;&-33,>33>*3233355597753*3352,,3,",
";-$@$$,,13<333253<3<;;-*-,o,331,2-->-;--*-735532;*",
";**$&o>3333333333;<,;35792@,2*&-=2322233219372,7;*",
",>**=@<5234224443;;;668888:2%X-<4544444415847*O,+-",
"1*>>,o<5335432242,334586884-<:<4254431444554*****@",
"3><,<X;8772-<:<><7354584795;44<4245543453<<&*,*,&O",
"-2,<$-#,3--<78865357455874:<4544-5556444534<>,*,**",
"o,3,O,---O&<<:-<22:;-<442=4424542>377337753*>>*-<-",
"& *OO& $=$:244<4<*:<14<:=:41555133-37833<<--3,2,;<",
"&@&o$*:#=75888800<4588543544<:2<<23,,,3<2**332,*;,",
"&3,,<<4-&8888558245<2445<4444<<<2333<>3<=<332;&,&&",
"3,22223,-767777155814555<2345<-333352-<*22,--;-&-*",
"33,,,35,297454<788816465434436-3332<=<2,<3*>;2,&3-",
",>,,322-:35==,47444<4447;332<<2-<--<2<,->-*,,23&,3",
"&--;>,,*23<<3451<5648444=53553323<22,<,;,32*233*,<",
"-,<,,,,255=-3352144=<:35-#;,:=333323;22;33<,*8,>**",
"3<<3,>333<<<3:3324*:-:=-X;44350972<2;;=23<23>**>;-",
"3<<2-7332:245*272=<53473=<,-2373452533579937-<<33,",
"423&32,2<23354=:=4544455,<33,555455577757335<3333<",
"2::-2:23332345&:,,335<52*3<2><*:,4<341658:-::4459<",
"&X<33332<43242=43,-<2<&>33;$325,3:-344444<4<:::2-*",
"<<,&5444243<3-<31,3,*-:<<;-;25<372444445::85754<<2",
"344o;3342,:33,333333-<23:;11-**<2<35444:=544545522",
"43$41%:;,48993:33333<,<<1=<3-<2<33<554<<=444552<23",
"<-<854<1853975,:3333,,324&<3,3<21<<14<<42-554=&;33",
"o$8546458438755:3333,12<2&=3<333<<52<11<2<<12<:-*&",
".X8855588<79555<,333,22322o*333<,141<<1<1<*<54555;",
"<:58547554877554*:2<2<3,3=+O-*@-<2222<<24<<:44445:",
"5:45554884<858754;;-<<22>$,<-&&2<<3<3223424<244323",
"4<-5687784-:5775575-&<3,#2<<<2*<333*<241<144145353",
"44412<484<1<,7575:<2<&&&<432<3*&3,<2=3534444<;4433",
"644<44<:3<4552><<<2333o <533333&33,>$&;<124<-<4433",
"646:144<:35537*<533444&,&&-**,-o*>&,2#:==;<=144125",
"524:4574<76753-,<21<<;*3<*=2-.$2@*231=142242<22455",
"44<:8332<<33,::<<<<<<o<:,2223,&3233,4-<4341<421437",
"45=o,<3433<<1<<13125<*<<<1,1<3=-32,33>333333333537",
"55=<-&<444331<<441<1,<,<<<<<23--33333*,33333333733"
};
